<svg version="1.2" xmlns="http://www.w3.org/2000/svg" viewBox="0 0 24 21" width="24" height="21">
	<style>
		.icon { 
			fill: #23f7dd;
		}
		.icon-logo {
			fill: #343a40;
		}
	</style>
	<path class="icon" d="m22.5 4.7q0.4 0.1 0.8 0.4 0.3 0.4 0.5 0.8 0.2 0.4 0.2 0.8v12q0 0.5-0.2 0.9-0.2 0.4-0.5 0.8-0.4 0.3-0.8 0.4-0.4 0.2-0.9 0.2h-18.6q-0.6 0-1.1-0.2-0.6-0.3-1-0.7-0.4-0.4-0.7-1-0.2-0.5-0.2-1.1v-15q0-0.6 0.2-1.1 0.3-0.6 0.7-1 0.4-0.4 1-0.7 0.5-0.2 1.1-0.2h17.3q0.4 0 0.8 0.2 0.4 0.1 0.7 0.5 0.4 0.3 0.5 0.7 0.2 0.4 0.2 0.8 0 0.2-0.1 0.3 0 0.2-0.1 0.3-0.1 0.1-0.3 0.1-0.1 0.1-0.2 0.1h-18.1q-0.1 0-0.2 0.1-0.2 0-0.3 0.1-0.1 0.1-0.1 0.3-0.1 0.1-0.1 0.2 0 0.2 0.1 0.3 0 0.2 0.1 0.3 0.1 0.1 0.3 0.1 0.1 0.1 0.3 0.1h17.8q0.5 0 0.9 0.2z"/>
	<path class="icon-logo" d="m16 15.4l-0.8 1.5-4.2-1.7q-0.2-0.1-0.3 0l-4.2 1.7-0.8-1.5 4.6-2.4-4.6-2.4 0.8-1.5 4.2 1.7q0.1 0.1 0.3 0l4.2-1.7 0.8 1.5-4.6 2.4z"/>
	<path class="icon-logo" d="m20.5 14.4c-0.7 0-1.3-0.5-1.3-1.3 0-0.7 0.6-1.3 1.3-1.3 0.8 0 1.4 0.6 1.4 1.3 0 0.8-0.6 1.3-1.4 1.3z"/>
</svg>