<svg version="1.2" xmlns="http://www.w3.org/2000/svg" viewBox="0 0 27 24" width="27" height="24">
	<style>
		.icon {
			fill: #fff;
		}
		.icon-logo {
			fill: #343a40;
		}
	</style>
	<path class="icon" d="m25.6 0.2q0.4 0.1 0.7 0.5 0.4 0.3 0.5 0.7 0.2 0.4 0.2 0.9v13.4q0 0.5-0.2 0.9-0.1 0.4-0.5 0.7-0.3 0.4-0.7 0.5-0.4 0.2-0.9 0.2h-22.4q-0.5 0-0.9-0.2-0.4-0.1-0.7-0.5-0.4-0.3-0.5-0.7-0.2-0.4-0.2-0.9v-13.5q0-0.4 0.2-0.8 0.1-0.4 0.5-0.7 0.3-0.4 0.7-0.5 0.4-0.2 0.8-0.2h22.5q0.5 0 0.9 0.2zm-3.2 23.1q-0.1 0.2-0.2 0.4-0.2 0.1-0.4 0.2-0.2 0.1-0.4 0.1h-15.8c-0.3 0-0.6-0.1-0.8-0.3-0.2-0.2-0.3-0.5-0.3-0.8 0-0.3 0.1-0.6 0.3-0.8 0.2-0.2 0.5-0.4 0.8-0.4h4.7l0.8-2.6q0.1-0.1 0.1-0.1 0.1-0.1 0.1-0.1 0.1-0.1 0.2-0.1 0.1-0.1 0.2-0.1h3.6q0.1 0 0.2 0.1 0.1 0 0.2 0.1 0 0 0.1 0.1 0.1 0 0.1 0.1l0.9 2.6h4.6q0.2 0 0.4 0.1 0.2 0.1 0.4 0.3 0.1 0.1 0.2 0.3 0.1 0.3 0.1 0.5 0 0.2-0.1 0.4z"/>
	<path class="icon-logo" d="m20.1 11.9l-1 1.8-5.1-2q-0.2-0.2-0.3 0l-5.1 2-1-1.8 5.6-2.9-5.6-2.9 1-1.8 5.1 2q0.1 0.2 0.3 0l5.1-2 1 1.8-5.6 2.9z"/>
</svg>