<svg version="1.2" xmlns="http://www.w3.org/2000/svg" viewBox="0 0 25 28" width="25" height="28"><style>.a{fill:#23f7dd}.b{fill:#343a40}</style><path class="a" d="m19.9 0.2q0.5 0.2 0.8 0.6 0.4 0.3 0.6 0.8 0.2 0.5 0.2 1v22.8q0 0.5-0.2 1-0.2 0.5-0.6 0.8-0.3 0.4-0.8 0.6-0.5 0.2-1 0.2h-12.3q-0.5 0-1-0.2-0.5-0.2-0.8-0.6-0.4-0.3-0.6-0.8-0.2-0.5-0.2-1v-22.8q0-0.5 0.2-1 0.2-0.5 0.6-0.8 0.3-0.4 0.8-0.6 0.5-0.2 1-0.2h12.3q0.5 0 1 0.2z"/><path class="b" d="m12.8 25.5c-0.9 0-1.6-0.7-1.6-1.5 0-0.8 0.7-1.5 1.5-1.5 0.9 0 1.5 0.7 1.5 1.5 0 0.8-0.6 1.5-1.5 1.5z"/><path class="b" d="m18 15.4l-0.8 1.5-4.2-1.7q-0.2-0.1-0.3 0l-4.2 1.7-0.8-1.5 4.6-2.4-4.6-2.4 0.8-1.5 4.2 1.7q0.1 0.1 0.3 0l4.2-1.7 0.8 1.5-4.6 2.4z"/></svg>