<?xml version="1.0" encoding="utf-8"?>
<!-- Generator: Adobe Illustrator 28.0.0, SVG Export Plug-In . SVG Version: 6.00 Build 0)  -->
<svg version="1.1" id="xAlias" xmlns="http://www.w3.org/2000/svg" xmlns:xlink="http://www.w3.org/1999/xlink" x="0px" y="0px"
	 viewBox="0 0 16.2 16.2" style="enable-background:new 0 0 16.2 16.2;" xml:space="preserve">
<style type="text/css">
	.st0{fill:#030712;}
	.st1{fill:#3364F6;}
</style>
<path id="Background" class="st0" d="M12.1,16.1h-8c-2.2,0-4-1.8-4-4v-8c0-2.2,1.8-4,4-4h8c2.2,0,4,1.8,4,4v8
	C16.1,14.3,14.3,16.1,12.1,16.1z"/>
<path id="X" class="st1" d="M13.2,10.5L12.5,12l-4.2-1.7c-0.1-0.1-0.2-0.1-0.3,0L3.8,12L3,10.5l4.6-2.4L3,5.7l0.8-1.5L8,5.9
	C8,6,8.1,6,8.3,5.9l4.2-1.7l0.8,1.5L8.6,8.1L13.2,10.5z"/>
</svg>
